# File created by Blade
# Date/Time:  Wed Jan 21 16:27:40 2015
# Frame Rate: 120.000 fps
#------------------------------------------------------
:FULLY-SPECIFIED
:DEGREES
1757
root 19.210066 6.121751 -8.316398 -226.167070 -17.205031 -182.212343
Spine 77.587589 4.131922 1.205282
Head 10.602716 -12.237836 0.131394
LeftShoulder -8.580288 -12.819385 3.585381
LeftArm -21.700956 39.813294 -103.785351
LeftForeArm 12.065350 0.000000 12.974956
LeftHand -6.937148 -0.000000 18.967749
LeftHandThumb1 -26.253704 0.000000 33.147579
RightShoulder 6.173611 -16.707362 -14.917347
RightArm 25.408281 -44.763978 64.641096
RightForeArm -16.483459 0.000000 36.639280
RightHand -19.220554 -0.000000 -19.360161
RightHandThumb1 -24.326973 -0.000000 -32.862282
LeftUpLeg -85.498467 2.930384 13.315824
LeftLeg 145.028014 -0.000000 -0.000000
LeftFoot -35.856905 13.659981 -9.411571
LeftToeBase 27.998362 -0.000000 -0.000000
RightUpLeg -82.786223 -4.343355 -29.708014
RightLeg 146.594712 -0.000000 -0.000000
RightFoot -36.249819 -26.234566 10.558088
RightToeBase 15.955738 -0.000000 -0.000000
1758
root 19.212026 6.148507 -8.436038 -225.527269 -16.985518 -182.400950
Spine 77.639646 4.266329 0.815283
Head 10.441663 -12.029218 0.765022
LeftShoulder -8.538417 -13.243166 3.046684
LeftArm -21.250167 40.345767 -103.263274
LeftForeArm 11.705268 0.000000 11.349939
LeftHand -6.831790 0.000000 16.916397
LeftHandThumb1 -26.253704 0.000000 33.147579
RightShoulder 6.167375 -16.711252 -14.540864
RightArm 25.978022 -44.703741 64.388938
RightForeArm -16.747601 -0.000000 35.781451
RightHand -19.309546 -0.000000 -20.145183
RightHandThumb1 -24.326973 -0.000000 -32.862282
LeftUpLeg -85.462493 3.300325 13.587416
LeftLeg 145.183303 -0.000000 -0.000000
LeftFoot -36.345590 13.503314 -9.305897
LeftToeBase 28.121753 -0.000000 -0.000000
RightUpLeg -83.187428 -4.408193 -29.654489
RightLeg 146.843668 -0.000000 -0.000000
RightFoot -36.735398 -26.088915 10.545829
RightToeBase 16.972886 -0.000000 -0.000000
1759
root 19.216517 6.163184 -8.564626 -224.809834 -16.661739 -182.503458
Spine 77.548228 4.413457 0.648364
Head 10.377241 -11.907848 1.407027
LeftShoulder -8.268300 -13.874116 2.486206
LeftArm -21.088751 40.614660 -102.901524
LeftForeArm 11.492089 -0.000000 9.662942
LeftHand -6.542975 -0.000000 15.134455
LeftHandThumb1 -26.253704 0.000000 33.147579
RightShoulder 6.100111 -16.983973 -14.104739
RightArm 26.636417 -44.499115 64.006353
RightForeArm -17.446727 -0.000000 34.919977
RightHand -19.322695 -0.000000 -21.124528
RightHandThumb1 -24.326973 -0.000000 -32.862282
LeftUpLeg -85.587821 3.753430 14.039524
LeftLeg 145.395119 -0.000000 -0.000000
LeftFoot -36.794027 13.299057 -9.282477
LeftToeBase 28.340388 -0.000000 -0.000000
RightUpLeg -83.735418 -4.477536 -29.486970
RightLeg 147.128396 -0.000000 -0.000000
RightFoot -37.022015 -25.462132 11.007373
RightToeBase 16.436512 -0.000000 -0.000000
1760
root 19.217566 6.202119 -8.668885 -224.230864 -16.479589 -182.597941
Spine 77.749387 4.404776 0.350864
Head 10.141922 -11.670325 1.965503
LeftShoulder -8.012602 -14.434478 1.905693
LeftArm -20.496878 40.967749 -102.281058
LeftForeArm 11.350041 0.000000 7.871746
LeftHand -6.168419 -0.000000 12.245147
LeftHandThumb1 -26.253704 0.000000 33.147579
RightShoulder 6.142604 -16.864224 -13.772132
RightArm 26.987292 -44.460466 63.856733
RightForeArm -18.143970 -0.000000 34.061282
RightHand -19.624928 -0.000000 -22.182083
RightHandThumb1 -24.326973 -0.000000 -32.862282
LeftUpLeg -85.491828 3.965156 14.340080
LeftLeg 145.466448 -0.000000 -0.000000
LeftFoot -37.264224 13.322891 -9.207086
LeftToeBase 28.992374 -0.000000 -0.000000
RightUpLeg -83.996568 -4.555730 -29.348669
RightLeg 147.299108 -0.000000 -0.000000
RightFoot -37.413421 -25.116514 11.296640
RightToeBase 16.876106 -0.000000 -0.000000
1761
root 19.222991 6.234196 -8.778508 -223.605136 -16.254687 -182.646148
Spine 77.872403 4.362219 0.055299
Head 9.917771 -11.367452 2.502909
LeftShoulder -7.798537 -14.893119 1.296803
LeftArm -19.740170 41.332036 -101.529805
LeftForeArm 11.261674 -0.000000 6.007670
LeftHand -5.765977 -0.000000 9.275728
LeftHandThumb1 -26.253704 0.000000 33.147579
RightShoulder 6.189592 -16.857578 -13.453382
RightArm 27.455296 -44.288514 63.635600
RightForeArm -19.184453 -0.000000 33.207324
RightHand -19.772538 -0.000000 -21.625036
RightHandThumb1 -24.326973 -0.000000 -32.862282
LeftUpLeg -85.490823 4.231572 14.730542
LeftLeg 145.570105 -0.000000 -0.000000
LeftFoot -37.709870 13.347324 -9.176249
LeftToeBase 29.109471 -0.000000 -0.000000
RightUpLeg -84.342992 -4.635134 -29.092386
RightLeg 147.480318 -0.000000 -0.000000
RightFoot -37.721034 -24.919787 11.574409
RightToeBase 17.097402 -0.000000 -0.000000
1762
root 19.221356 6.263399 -8.887381 -222.950718 -16.081763 -182.665773
Spine 77.941693 4.221047 -0.240790
Head 9.804951 -11.073262 2.865815
LeftShoulder -7.455152 -15.434513 0.627868
LeftArm -19.158178 41.669127 -100.877204
LeftForeArm 11.317131 0.000000 4.188889
LeftHand -5.443493 -0.000000 6.510315
LeftHandThumb1 -26.253704 0.000000 33.147579
RightShoulder 6.285820 -16.865064 -13.151271
RightArm 27.771031 -43.920150 63.520110
RightForeArm -20.636172 -0.000000 32.353662
RightHand -18.038596 -0.000000 -19.405561
RightHandThumb1 -24.326973 -0.000000 -32.862282
LeftUpLeg -85.574116 4.425650 15.057043
LeftLeg 145.678939 -0.000000 -0.000000
LeftFoot -38.070550 13.487556 -9.173743
LeftToeBase 29.091670 -0.000000 -0.000000
RightUpLeg -84.684394 -4.808875 -28.838167
RightLeg 147.629407 -0.000000 -0.000000
RightFoot -37.988853 -24.985546 11.701664
RightToeBase 17.847986 -0.000000 -0.000000
1763
root 19.220221 6.276357 -8.999591 -222.120975 -15.903046 -182.678948
Spine 77.787493 4.088420 -0.545387
Head 9.679812 -10.742567 3.264377
LeftShoulder -7.056885 -15.996178 -0.068807
LeftArm -18.702147 41.887170 -100.221859
LeftForeArm 11.555149 -0.000000 2.429053
LeftHand -5.048283 -0.000000 3.893277
LeftHandThumb1 -26.253704 0.000000 33.147579
RightShoulder 6.340636 -16.911828 -12.726904
RightArm 28.096932 -43.675850 63.233124
RightForeArm -21.640194 -0.000000 31.507641
RightHand -17.083629 0.000000 -19.207378
RightHandThumb1 -24.326973 -0.000000 -32.862282
LeftUpLeg -85.899609 4.666180 15.410402
LeftLeg 145.802216 -0.000000 -0.000000
LeftFoot -38.426122 13.679071 -9.133176
LeftToeBase 29.520493 -0.000000 -0.000000
RightUpLeg -85.213040 -5.067600 -28.621741
RightLeg 147.801562 -0.000000 -0.000000
RightFoot -38.222602 -24.934403 11.867657
RightToeBase 17.947426 -0.000000 -0.000000
1764
root 19.222236 6.312995 -9.096938 -221.403677 -15.763350 -182.678743
Spine 77.869060 3.908435 -0.873387
Head 9.401074 -10.390264 3.657514
LeftShoulder -6.538208 -16.720842 -0.666804
LeftArm -18.418172 41.993763 -99.747565
LeftForeArm 11.728602 -0.000000 0.853237
LeftHand -4.817415 -0.000000 1.822295
LeftHandThumb1 -26.253704 0.000000 33.147579
RightShoulder 6.424816 -16.761436 -12.301398
RightArm 28.336726 -43.453688 62.947468
RightForeArm -22.480293 0.000000 30.752037
RightHand -16.672642 -0.000000 -19.253762
RightHandThumb1 -24.326973 -0.000000 -32.862282
LeftUpLeg -86.046311 4.799203 15.715287
LeftLeg 145.832948 -0.000000 -0.000000
LeftFoot -38.777876 13.908254 -9.143064
LeftToeBase 30.132839 -0.000000 -0.000000
RightUpLeg -85.509675 -5.241488 -28.465778
RightLeg 147.916804 -0.000000 -0.000000
RightFoot -38.475983 -24.691136 12.131237
RightToeBase 18.102288 -0.000000 -0.000000
